<svg xmlns="http://www.w3.org/2000/svg" width="20" height="20" viewBox="0 0 20 20"><g><g><path fill="#fff" d="M0 10c0-4.191 0-6.287 1.05-7.733A5.5 5.5 0 0 1 2.267 1.05C3.713 0 5.81 0 10 0s6.287 0 7.733 1.05a5.5 5.5 0 0 1 1.217 1.217C20 3.713 20 5.81 20 10s0 6.287-1.05 7.733a5.5 5.5 0 0 1-1.217 1.217C16.287 20 14.19 20 10 20s-6.287 0-7.733-1.05a5.5 5.5 0 0 1-1.217-1.217C0 16.287 0 14.19 0 10zm10-5.294a5.294 5.294 0 1 0 0 10.589 5.294 5.294 0 0 0 0-10.59zm0 8.603A3.313 3.313 0 0 1 6.691 10 3.313 3.313 0 0 1 10 6.691 3.313 3.313 0 0 1 13.309 10 3.313 3.313 0 0 1 10 13.309zm5.691-9.706a.705.705 0 1 0 0 1.411.705.705 0 0 0 0-1.41z"/></g></g></svg>